<?xml version="1.0" standalone="no"?>
<!DOCTYPE svg PUBLIC "-//W3C//DTD SVG 20010904//EN"
 "http://www.w3.org/TR/2001/REC-SVG-20010904/DTD/svg10.dtd">
<svg version="1.0" xmlns="http://www.w3.org/2000/svg"
 width="534.000000pt" height="534.000000pt" viewBox="0 0 534.000000 534.000000"
 preserveAspectRatio="xMidYMid meet">
<metadata>
Created by potrace 1.11, written by Peter Selinger 2001-2013
</metadata>
<g transform="translate(0.000000,534.000000) scale(0.100000,-0.100000)"
fill="#000000" stroke="none">
<path d="M2549 5325 c-115 -30 -228 -119 -287 -225 -78 -139 -76 -319 6 -460
28 -48 136 -160 156 -160 8 0 11 -37 11 -129 0 -72 -3 -132 -6 -135 -2 -3 -20
-8 -39 -11 -195 -34 -450 -137 -591 -241 -26 -19 -50 -34 -53 -34 -4 0 -47 39
-95 88 l-88 87 5 97 c4 80 1 108 -17 164 -42 129 -127 227 -246 284 -101 48
-195 56 -331 27 -6 -2 -40 -17 -77 -35 -118 -58 -220 -195 -244 -328 -26 -138
23 -302 118 -400 109 -112 274 -167 422 -139 37 7 38 6 128 -84 l91 -91 -41
-63 -41 -63 -135 1 c-75 0 -139 -2 -143 -5 -4 -3 -8 -131 -7 -285 l0 -280 -90
0 -90 0 -29 44 c-57 84 -176 159 -286 179 -212 39 -414 -67 -508 -265 -35 -75
-36 -82 -36 -188 1 -89 5 -120 23 -164 75 -184 227 -291 421 -297 146 -4 264
47 360 154 27 31 50 60 50 64 0 4 61 8 135 8 122 0 135 -2 136 -17 2 -43 42
-194 79 -294 33 -92 115 -251 166 -322 19 -26 34 -50 34 -54 0 -4 -41 -49 -91
-99 -86 -87 -93 -91 -121 -83 -44 12 -187 3 -238 -15 -191 -70 -322 -259 -314
-451 13 -306 294 -515 585 -434 94 26 128 46 204 118 103 99 156 265 130 413
-6 36 -4 39 85 128 49 49 92 90 94 90 2 0 36 -22 77 -49 163 -107 361 -186
568 -226 9 -2 23 -4 31 -4 13 -1 15 -22 15 -132 l0 -131 -40 -31 c-121 -96
-185 -218 -190 -362 -6 -211 123 -391 324 -455 114 -36 226 -28 337 25 121 58
218 175 252 305 42 163 -28 366 -164 472 l-54 43 0 131 0 131 88 17 c87 18
207 54 272 82 84 37 191 94 246 130 32 22 65 43 71 47 8 5 45 -24 102 -80 l89
-88 -3 -90 c-5 -104 5 -157 44 -240 77 -165 257 -272 437 -260 87 6 113 12
183 47 73 35 156 112 195 179 155 270 13 604 -291 684 -58 16 -155 18 -203 5
-22 -6 -37 5 -118 87 -60 60 -90 98 -86 106 4 6 24 37 45 67 46 69 131 234
144 280 1 3 15 48 32 100 17 52 36 125 44 163 l13 67 132 0 132 0 17 -28 c31
-47 110 -117 171 -149 177 -93 394 -60 538 82 119 118 167 302 119 456 -9 30
-17 56 -17 59 -2 14 -67 109 -93 135 -175 179 -463 188 -648 19 -12 -11 -37
-39 -57 -64 l-37 -45 -68 1 c-37 1 -73 2 -78 3 -7 1 -10 98 -10 283 l0 283
-152 0 -153 0 -40 62 -41 62 88 88 88 89 107 -3 c115 -3 180 12 262 61 250
148 297 508 94 716 -64 65 -109 93 -187 120 -248 83 -514 -56 -591 -309 -18
-62 -24 -174 -10 -221 7 -25 0 -35 -85 -120 l-93 -93 -72 47 c-39 26 -111 67
-158 91 -91 46 -252 109 -252 99 0 -4 -6 -2 -12 3 -7 6 -55 19 -105 29 l-93
18 1 131 0 130 49 37 c63 48 126 133 152 206 28 78 31 225 4 302 -77 231 -323
366 -557 305z m-339 -2545 c-3 -14 -5 -68 -4 -121 l0 -97 -40 -5 c-23 -3 -45
-1 -51 4 -14 14 -11 214 3 232 7 8 29 13 54 13 40 -2 43 -3 38 -26z m1011 3
c14 -40 15 -199 0 -221 -6 -10 -19 -12 -52 -5 l-44 9 3 84 c2 47 -1 99 -7 117
-11 37 -7 40 52 39 32 -1 41 -6 48 -23z"/>
</g>
</svg>
